<svg xmlns="http://www.w3.org/2000/svg" width="1000.2" height="200.8" viewBox="0 0 264.6 53.1"><defs><filter id="a" color-interpolation-filters="sRGB"><feFlood flood-opacity=".3" flood-color="#000" result="flood"/><feComposite in="flood" in2="SourceGraphic" operator="out" result="composite1"/><feGaussianBlur in="composite1" stdDeviation=".3" result="blur"/><feMorphology operator="dilate" radius=".4"/><feOffset result="offset"/><feComposite in="offset" in2="SourceGraphic" operator="atop" result="composite2"/></filter></defs><path d="M127.5 2.6c-6.3 1.6-13 .2-19.3 2-2.3 1.7-3.3 5.7-7 4.4-4.6-.1-8.1 4.7-12.7 2-3.7-.3-7.9-2.1-11 0-9.3-4.5-19.6 2.3-29.2-1C41.5 8 34 11.4 28 6.8 23.3 3 17.7 4.2 12.5 5.7 6.2 10.3.2 17 1.5 25.5c.6 5 1.1 10.7 3.2 15.4 6 5.4 15.1 10.2 22.7 4.8 3.7-.5 4.5-6 8.8-4.4 3.4.6 6.8.3 10-.4 3.5 1.5 4.6-4.5 6.6-6.3 1.4 4.7 4 10.1 10 8.2 5.5-.5 12.1 1.3 17-1.8 2.7 2.8 6.9 1 10.2 1.5 2.2-.3 4.4-1 4.2 2 1 2.8 2.1 9.2 6 6.8 3.4-1.4 9-.6 7.7-5.8.6-2.6-.5-8.9 2.5-8.6.5 4.6 2 12.1 8.3 11.4 4.6 0 10.1.2 14-1 1.7-1.3 1.6-8.9 4.1-6.4 6.7 3.3 14 .6 20.9 2.7 5-1.5 10.4.9 15.2-1.2 2.1-1.3 4-4.3 6-1.5 4 2.8 9.1 2.7 13.3 1.2 4 .5 8.6 1 12.6.3 2.1-1.6 2.9-4.5 4.1-6.5 1.8 7 7.4 7.5 13.6 6.8 4.3-.8 8.6 1.4 12.7.6 4.7-3.2 11.8 0 17.4-.7 3.6 1.3 7.2 0 8.3-3.7 2.5-6.6 3.4-13.9 1-20.8.2-6.3-6.3-10.3-12-8.4-5.3.5-11.2-1-16.1.2-1.5 1.5-2.4 3.5-4.5 1.7a26.2 26.2 0 00-17.9.5c-6-3.4-13.7-1.3-20.3-2.6-3.5-1-7-.6-9.6 2-4.5 2.9-8.8-2.4-13.5-2.6-5.5-1.7-10.5 1.8-16 .6-4.9.5-9.7.6-11.7-4.5-2-3.5-7.2-1.4-10.8-2.4h-1z" style="line-height:1.25;-inkscape-font-specification:Scurlock" font-weight="400" font-size="10.6" font-family="Scurlock" letter-spacing="0" word-spacing="0" fill="#d01d1d"/><g font-weight="400" font-family="Scurlock" letter-spacing="0" word-spacing="0"><path style="line-height:1.25;-inkscape-font-specification:Scurlock" d="M127.5 1.4c-6.3 1.6-13 .1-19.3 1.9-2.3 1.8-3.3 5.8-7 4.5-4.6-.2-8.1 4.7-12.7 2-3.7-.3-7.9-2.2-11 0-9.3-4.5-19.6 2.2-29.2-1C41.5 6.7 34 10.2 28 5.5c-4.6-3.7-10.2-2.5-15.4-1C6.2 9 .2 15.7 1.5 24.2c.6 5 1.1 10.6 3.2 15.4 6 5.3 15.1 10.2 22.7 4.7 3.7-.4 4.5-6 8.8-4.4 3.4.7 6.8.4 10-.4 3.5 1.6 4.6-4.5 6.6-6.3 1.4 4.8 4 10.2 10 8.2 5.5-.4 12.1 1.3 17-1.7 2.7 2.8 6.9.9 10.2 1.4 2.2-.3 4.4-1 4.2 2 1 2.9 2.1 9.3 6 6.8 3.4-1.4 9-.6 7.7-5.7.6-2.7-.5-9 2.5-8.6.5 4.6 2 12 8.3 11.3 4.6.2 10.1.3 14-.8 1.7-1.5 1.6-9 4.1-6.6 6.7 3.3 14 .7 20.9 2.8 5-1.5 10.4.9 15.2-1.2 2.1-1.4 4-4.3 6-1.6 4 2.9 9.1 2.8 13.3 1.3 4 .5 8.6 1 12.6.2 2.1-1.6 2.9-4.4 4.1-6.5 1.8 7 7.4 7.5 13.6 6.9 4.3-.9 8.6 1.3 12.7.6 4.7-3.2 11.8 0 17.4-.8 3.6 1.4 7.2 0 8.3-3.6 2.5-6.7 3.4-14 1-20.8.2-6.4-6.3-10.3-12-8.5-5.3.6-11.2-1-16.1.2-1.5 1.6-2.4 3.6-4.5 1.7a26.2 26.2 0 00-17.9.5c-6-3.4-13.7-1.2-20.3-2.5-3.5-1-7-.6-9.6 1.9-4.5 3-8.8-2.4-13.5-2.6-5.5-1.6-10.5 1.9-16 .6-4.9.6-9.7.7-11.7-4.5-2-3.5-7.2-1.4-10.8-2.4h-1z" font-size="10.6" fill="#202020"/><path style="line-height:1.25;-inkscape-font-specification:Scurlock" d="M127.2 7a.3.3 0 00-.2 0c-.1.2-.3.3-.5.3a.3.3 0 00-.2 0c-.4 0-.7.2-.8.3h-.2a.3.3 0 00-.2 0 125.3 125.3 0 00-1.4.4c-.5 0-1.3 0-2.4-.2a15 15 0 00-2.6-.3c-.5 0-1.2 0-2.1.2l-2 .3-1.3-.3-1.4-.3h-1l-1 .1a.3.3 0 00-.2.2l-.5 2.4c-.1 1-.4 1.7-.7 2.2a.3.3 0 000 .4l.7.4c-.7.4-1.3 1-1.9 1.7a21 21 0 01-1.7 2.1.3.3 0 000 .4c.4.4.8.6 1.2.6.5 0 1-.2 1.6-.8.6-.5 1.2-1.2 1.8-2.2l2.5-3.9h3.2a.3.3 0 00.1 0l1.6-.8.3.8a.3.3 0 00.2.2l1.2.2a1443.9 1443.9 0 00.9 5.7l.3.6.1.2-1 2.3a.3.3 0 000 .1v8.4c0 .6.2 1 .7 1.5l.5.4v.5l-.5.8c-.3.7-.6 1.1-.6 1.5l.3 1 .3.8V39l-.8 1c-.3.4-.7.6-1 .6h-.8l-.8-.1c-.5 0-.9 0-1.2.4-.2.2-.4.6-.4 1.1a.3.3 0 000 .1c.2.3.4.5.7.6l5.3-.3a.3.3 0 00.3-.1c0-.3.1-.3.3-.3l.9.1 1 .1c.3 0 .7 0 1.2-.2l1-.2.8.1.6.1.2.5a.3.3 0 00.3.2l3-.2a.3.3 0 00.2 0c.3-.5.4-.9.3-1.3v-.3a.3.3 0 00-.1-.2 8 8 0 00-2.3-.3 12 12 0 00-1.1-1l-1.3-2.3c-.5-.7-.7-1.4-.7-2.2l.2-.6c.3-.4.4-.6.4-.9v-.2a.3.3 0 00-.2-.2 27 27 0 00-.9-.5l1.1-1.9a.3.3 0 000-.2l-.1-.6v-1a24.6 24.6 0 00-.6-5l-.3-.3.3-1 .2-.7-.2-2.1v-2a13.4 13.4 0 01.3-1h-.1a8.2 8.2 0 00-.2 0l-.1-.1h.5c0-.3 0-.6-.3-.8h-.2a.3.3 0 00-.1-.1h-.5c-.2 0-.2-.1-.2-.3v-.1l.5-.5c.5-.5.7-1 .7-1.3V12.2c.2-.4.6-.7 1.3-.8l.7-.2c.2-.1.3-.3.3-.4h1.9c.7 0 1.3-.1 1.8-.3a9 9 0 001.9 2.3v.7l.7.9.8.8.2.4.3.8.4.5 2.1 1.3a.3.3 0 00.1 0c.3 0 .5-.1.6-.3l.2-.2a.3.3 0 00.1 0 .3.3 0 00.3-.2l.3-.4a.3.3 0 00-.4-.3c0-.2 0-.3-.2-.5l-.3-.6 2 .1 2.6 2.3v.2l-.4.8c-.3.7-.5 1.3-.5 1.7l.3 1.3.1.8a120.9 120.9 0 01-3.7 0l-1.4-.1c-.4 0-1 .1-1.5.4l-.3.7v.4a.3.3 0 00.2.3 321 321 0 013.1.3 54.6 54.6 0 00.2-.2h.1v.5l1.1-.1 1-.2c.1 0 .4.1.7.5l.5.7-.1 1.7c0 .9.1 1.8.5 3-.4.5-.6 1-.6 1.5v2.5a.3.3 0 000 .2l.2.1h-.6l-.6.3h.1l-1 .1a.3.3 0 00-.1.2c-.3.4-.5 1-.7 1.5a.3.3 0 00.2.4l1 .3.6.3h.4c.4 0 1 0 1.7-.2l1.7-.2 3 .3 3.3.1h.3a63.6 63.6 0 003.7-.6l1 .5.7.2c.5 0 .9-.2 1.2-.4.3-.3.5-.7.6-1.2a24 24 0 011.9-6L163 29c.5-.7.8-1.4.9-2.1a.3.3 0 00-.4-.3 13.8 13.8 0 00-6.8 7v.5h-.9c-1.2.7-2 1-2.6 1h-3.8c0-.4-.2-.7-.3-.9V29l.1-1 .2-1.1a.3.3 0 000-.1l-.2-.6a.3.3 0 00-.1-.1l-.5-.3.4-.3 1.5-.2c.6 0 1 .1 1.1.3a.3.3 0 00.1 0c1.6.5 2.7.7 3.4.7l.7-.1s.3 0 .5.2l1 .7 1.1.7c.3.2.5.3.8.3h.4a.3.3 0 00.2-.3l.2-1.3a.3.3 0 00-.1-.2l-2-2.2-.4-1.2c-.1-.7-.3-1.1-.6-1.5a.3.3 0 00-.2 0 2 2 0 00-1.2.4 9 9 0 01-.4.4s-.1.1 0 0a47.8 47.8 0 01-5.9.5h-.2l.2-1 .2-1.3c0-.3 0-.5-.2-.8a.3.3 0 00-.2-.2h-.3l.2-.9c.2-.5.2-.9.2-1.3v-.4l1-.1 1.1-.2c1.4 0 2.5.1 3.3.3.8.1 1.3.4 1.5.6a101.9 101.9 0 004.8 5.1l.3.1h.3a.3.3 0 00.2-.2l.3-1.1c0-.8-.4-1.7-1.3-3-.2-.2-.4-.7-.6-1.5l-.6-1.8-.5-1.2v-.3a.3.3 0 000-.3l-.7-.3a1 1 0 00-.4-.2c-.4 0-.8.3-1.4.6l-1 .5-.4-.1-.6-.2-3.3.1a75 75 0 01-5.5 0l-2.2-.2H140a.3.3 0 00-.2.1c-.4.4-.6 1-.8 1.6l-.2-.4c-.6-1-1-1.9-1.5-2.4a.3.3 0 00-.4 0h-.2l.1-.1c.3-.4.5-.6.5-1 0-.2 0-.5-.2-.9l-.1-.7c0-.2 0-.4.2-.6l.3-.4.1-.3c0-.4-.2-.8-.6-1a.3.3 0 00-.1-.1h-.6l-.8.1-.7.2-.4-.2-.6-.2c-.3 0-.5 0-.9.2l-.5.1h-.6a.3.3 0 00-.3.2l-.1.1h-2l-.3-.3a.3.3 0 00-.2 0c-.8 0-1.2-.1-1.4-.4a.3.3 0 00-.2 0zm-109.5.4a.3.3 0 00-.1 0l-.6.2a.3.3 0 00-.2 0c-.5.6-1.4.9-2.8.9a.3.3 0 00-.2.2 9.1 9.1 0 01-.6 1.8c-1 0-2 .8-2.8 2.3-.9 1.4-1.6 2.1-2 2.2a.3.3 0 00-.3.2v1.3l.1.8a55 55 0 01-1.7 2.1.3.3 0 00-.2.3v3.5l-.4 1c-.3.5-.4 1-.4 1.3 0 1.6.2 3.3.7 5l1.4 5c.5.7 1 1 1.3 1.3h-.1l.1.4c0 .8.5 1.5 1.3 2l1.2.7 2.6 2c1.5 1.2 3 1.8 4.7 1.8l.7-.1c.4 0 .7-.1.8 0a.3.3 0 00.1 0 248 248 0 004.5-1.4h.1l.5-.4a.3.3 0 00.3-.3l.1-.8.2-.1c1.1-.2 2-.7 2.6-1.6l1.2-2.5c.4 0 .8 0 1-.2.3-.3.4-.7.4-1.3 0-.4 0-.8-.2-1.2a31.9 31.9 0 011.8-2.2l-.4-.2v-.1a382.6 382.6 0 00.4 0V31a223.8 223.8 0 01.1-3.4l.4-.5a.3.3 0 00.2.2l3.3.3h.5l.1.7c0 .1 0 .4-.2.7a.3.3 0 00.2.4h.4a137.8 137.8 0 00-.9 4.3l.1.9v.6l-1 .1-1 .4a1 1 0 00-.3.7v1a.3.3 0 00.3.2h.9l.3.3a.3.3 0 00.2.2h.4l1.7-.4 1.7-.3 1.6.4 1.8.4c.4 0 .8-.3 1-.6.2-.3.3-.8.3-1.4a.3.3 0 00-.2-.3c-.5 0-.9-.1-1.2-.5l-.8-.7v-2l.1-.8.3-1-.2-1.4c-.2-.6-.2-1-.2-1.4V28h.3c.5 0 .9.1 1.1.3l.8 1.2a.3.3 0 00.5-.1V28h.1c.5.4 1.2.5 2.3.5 1.1 0 2.1-.2 3-.7h2a.3.3 0 00.2-.1l.1-.3.2.4a.3.3 0 00.5-.1c0-.8.3-1.3.7-1.6.4-.4.7-.7.7-1.1a.3.3 0 000-.1v-.1l1.5.2a49.5 49.5 0 01.7.2 48 48 0 000-.5v.5l1.2-.1 1-.2c.1 0 .4.1.7.5l.5.7-.1 1.7c0 .9.1 1.8.5 3-.4.5-.6 1-.6 1.5v2.5a.3.3 0 000 .2l.2.1h-.6l-.6.3h.1l-1 .1a.3.3 0 00-.1.2c-.3.4-.5 1-.7 1.5a.3.3 0 00.2.4l1 .3.6.3h.4c.4 0 1 0 1.7-.2l1.7-.2 3 .3 3.2.1h.4a63.6 63.6 0 003.7-.6l1 .5.7.2c.5 0 .9-.2 1.2-.4.3-.3.5-.7.6-1.2a24 24 0 011.9-6l1.3-1.7c.5-.7.8-1.4.9-2.1a.3.3 0 00-.4-.3 13.8 13.8 0 00-6.8 7v.5h-.9c-1.2.7-2 1-2.6 1h-3.8l-.3-.9V29l.1-1 .2-1.1a.3.3 0 000-.1l-.2-.6a.3.3 0 00-.1-.1l-.5-.3.4-.3 1.5-.2c.6 0 1 .1 1.1.3a.3.3 0 00.1 0c1.6.5 2.7.7 3.4.7l.7-.1.5.2 1 .7 1.1.7c.3.2.5.3.8.3h.4a.3.3 0 00.2-.3l.2-1.3a.3.3 0 00-.1-.2l-2-2.2L75 23c-.1-.7-.3-1.1-.6-1.5a.3.3 0 00-.2 0 2 2 0 00-1.2.4 9 9 0 01-.4.4s-.1.1 0 0a47.8 47.8 0 01-5.9.5h-.2l.2-1 .2-1.3c0-.3 0-.5-.2-.8a.3.3 0 00-.2-.2h-.3l.2-.9c.2-.5.2-.9.2-1.3v-.4l1-.1 1.1-.2c1.4 0 2.5.1 3.3.3.8.1 1.3.4 1.5.6a101.4 101.4 0 004.8 5.1l.3.1h.3a.3.3 0 00.2-.2l.3-1.1c0-.8-.4-1.7-1.3-3-.2-.2-.4-.7-.6-1.5l-.6-1.8-.5-1.2v-.3a.3.3 0 000-.3l-.7-.3a1 1 0 00-.4-.2c-.4 0-.8.3-1.4.6l-1 .5-.4-.1-.6-.2-3.4.1a75 75 0 01-5.4 0l-2.2-.2h-3.5a.3.3 0 00-.2.1 4 4 0 00-.8 1.8.3.3 0 00.2.4l2.2.1 2.5 2.3v.2l-.4.8c-.3.7-.5 1.3-.5 1.7l.2 1.3.2.8a120.8 120.8 0 01-3.7 0h-.9c.3-.9.5-1.5.5-2a2 2 0 00-.3-.9 2 2 0 01-.2-.6l.1-.8a.3.3 0 000-.2 9.3 9.3 0 00-2.7-3.4c-1.4-1.2-2.7-1.8-4-1.8a3 3 0 00-.7.1 23.9 23.9 0 01-2.7 0c-1-.2-1.6-.2-2.1-.2l-.4-.2a.3.3 0 00-.1 0l-1.9.3-1.6.3-1.4-.5a.3.3 0 00-.2 0 8.1 8.1 0 01-2.8.2H35c-.4 0-.7 0-1 .2-.2.3-.3.6-.3 1 0 .3.2.6.5.8a51.5 51.5 0 002.6.5l.7 3.5h-.2a.3.3 0 00-.3.3v1a86.5 86.5 0 001 5h-1.5c-.7-.2-1.2-.2-1.6-.2h-.2-.2l-.5.3-.2.1-.3-.7-.1-.8v-3.4a.3.3 0 000-.1l-1-1.6c-.3-.6-.5-1.8-.6-3.7a.3.3 0 00-.2-.2l-.6-.3-.5-1c-.2-.6-.3-1-.6-1.4a266 266 0 01-3.7-2.9c-1-.8-2.2-1.3-3.5-1.6a.3.3 0 00-.2-.2h-3a.3.3 0 00-.2-.2l-1.6-.2zm2.7 2.9l.7.4a.3.3 0 00.2 0l1.4.1 1.2.6a22 22 0 002.1 3.5v1.4c0 1.6.3 3 1 4 0 .6 0 1.2.3 1.8l.2 1.4-.1.3-.2.2a.3.3 0 000 .1l.1 1.2v1c0 .4 0 .6-.2.7a.3.3 0 00-.1.2l.2 2.2-1.4 6.6a8 8 0 00-1.7 1.6c-.4.5-.9 1-1.4 1.9-.4.1-.7.3-1.1.3a.3.3 0 00-.2.1c-.4.6-1 1-2.2 1H19l-.2-.2c-.1 0-.1 0 0 0a.3.3 0 00-.2-.1l-.3-.3a.3.3 0 00-.1 0c-.2 0-.4 0-.6.2h-.2-.4.1a1 1 0 00-.6-.2 16.6 16.6 0 00-1.2-1c-.5-.8-1.1-1.7-1.9-2.6v-.6c0-.6-.1-1.5-.4-2.5-.4-1.1-.6-2-.6-2.4l-.2-2.9a.3.3 0 00-.2-.2l-.2-.2v-.4h.1a.3.3 0 00.2-.3l-.2-3c.1 0 .2 0 .3-.2v-.5V22l1.2-6.8 3.3-3.6a3 3 0 011-.4.3.3 0 00.2 0l1.1-.8a4 4 0 011.4-.2zm142 2.1a1 1 0 00-1 .6c-.2.3-.3.8-.4 1.4a.3.3 0 00.2.3l.7.4c.4.3.7.4 1 .4h.3l.1-.1a77 77 0 011.2 1.2 6.4 6.4 0 010 3c-.2.6-.2 1-.2 1.3 0 .5.3 1 .8 1.2l-.1.3-.4.8a3 3 0 00-.2 1v1.6l-.3.4a.3.3 0 000 .2c0 1.2.2 2.1.8 2.7l-.3.7-.3 1v3.3a33.3 33.3 0 000 1.3s0 .2-.2.3l-.8.6c-.7.4-1.2.9-1.2 1.5l.1.5a.3.3 0 00.3.2l2-.7c.8-.4 1.5-.6 1.8-.6l.7.3.5.2h1l1.3-.4.9.2h.4c.3 0 .6 0 .8-.2l.2-.7c0-.2 0-.4-.2-.6l-.4-.1-1.7-1.8-.1-1.8a26.7 26.7 0 010-4.6l.3-2.7c0-.7-.1-1.2-.3-1.6-.2-.3-.4-.4-.6-.5.3-.4.5-.8.5-1.2 0-.3 0-.7-.3-1.2a4 4 0 01-.2-1.1l.1-.3.5-.1c.3 0 .8.2 1.4.9.7.6 1 1.2 1.1 1.5a.3.3 0 00.2.2l1 .2a96.3 96.3 0 011.5 1.9c.2.4.3 1.2.3 2.4a.3.3 0 000 .2c.2.1.3.6.3 1.3V30c0 .7.1 1.2.3 1.6 0 .2.1.3.3.4l.5.2.8-.3a.3.3 0 00.1-.2 419.9 419.9 0 00.1-3.8c.5-.7.8-1.4.7-2.3v-1.5l.4-1 1.6-1.8a20 20 0 012.5-2.4c0 1.1.2 2.2.5 3.4-.5.9-.8 1.8-.8 2.7 0 1.3.4 2.7 1 4.3-.5.3-.8.7-.8 1.1 0 .4 0 1 .2 1.6l.3 1.4c0 .8-.1 1.3-.3 1.6-.2.4-.4.5-.7.5h-.8a.3.3 0 00-.2 0 1 1 0 00-.6.2 1 1 0 00-.3.7v1a.3.3 0 00.3.2c.4 0 .8.2 1.2.6a.3.3 0 00.2 0 58 58 0 001.1-.3l.7.1 1 .2.8-.3.7-.2.8.2 1 .2c.6 0 1-.1 1.4-.4.4-.2.6-.6.6-1.1l-.2-.7a.3.3 0 00-.2-.2 84 84 0 00-1.5-.3l-.6-3.5a57.2 57.2 0 00.4-2.3c0-.3-.2-.7-.5-1.2.3 0 .5-.2.6-.5.2-.4.3-1 .3-1.6 0-.6 0-1.5-.2-2.7l-.2-2.7c0-2.4.4-4 1.1-4.6l1-1 .3-.3.2.2a51.4 51.4 0 002.5.5l.9 3.5h-.3a.3.3 0 00-.3.3v1a86.5 86.5 0 001 5h-1.5c-.7-.2-1.2-.2-1.6-.2h-.2-.1a12.2 12.2 0 00-1.1.5l-.3.2a.3.3 0 00-.1.2c0 .3 0 .6.2 1a.3.3 0 00.2.1l3.3.3h.6v.7c0 .1 0 .4-.2.7a.3.3 0 00.2.4h.4a137.8 137.8 0 00-.8 4.3v.9l.1.6h-.1l-.9.1-1 .4a1 1 0 00-.4.7v1a.3.3 0 00.3.2h1l.2.3a.3.3 0 00.3.2h.3l1.7-.4 1.7-.3c.3 0 .9.1 1.6.4l1.8.4c.5 0 .8-.3 1-.6.2-.3.3-.8.4-1.4a.3.3 0 00-.3-.3c-.5 0-.8-.1-1.2-.5l-.8-.7v-2l.2-.8.2-1c0-.3 0-.8-.2-1.4-.2-.6-.2-1-.2-1.4V28h.3c.6 0 1 .1 1.1.3l.8 1.2a.3.3 0 00.5-.1V28h.1c.5.4 1.3.5 2.3.5 1.2 0 2.2-.2 3-.7h2a.3.3 0 00.2-.1l.1-.3.2.4a.3.3 0 00.5-.1c.1-.8.3-1.3.7-1.6.4-.4.7-.7.7-1.1a.3.3 0 000-.1l1-1.8c.3-1 .5-1.6.5-2.2a2 2 0 00-.2-.9 2 2 0 01-.3-.6l.1-.8a.3.3 0 000-.2A9.3 9.3 0 00210 15c-1.4-1.2-2.7-1.8-4-1.8a3 3 0 00-.6.1 23.9 23.9 0 01-2.7 0c-1-.2-1.7-.2-2.2-.2l-.4-.2a.3.3 0 00-.1 0l-1.8.3-1.7.3-1.4-.5a.3.3 0 00-.2 0 8.1 8.1 0 01-2.8.2h-.7-.1v-.5a.3.3 0 00-.4-.3c-2.1.5-3.7 1-4.8 1.4 0-.2-.1-.3-.3-.5a.3.3 0 00-.3 0l-2.4 2-.6.5-.2.1c-.3 0-.5 0-.8.2l-1.1.9c-.8.8-2 2-3.2 3.5l-1.8-2.7a5 5 0 00-1.5-1.4l-1.6-.8c-.6-.3-.8-.7-1-1.1a.3.3 0 00-.3-.2h-.3l-.3-.1-.8-.4a.3.3 0 00-.1 0c-.5-.6-1-1-1.6-1h-1a.3.3 0 00-.3.2v.2l-3.1-.3-.4-.3-.8-.2zm91.7.3c-.4 0-.8.3-1.3.6l-1 .5-.4-.1-.7-.2-3.3.1a75 75 0 01-5.5 0l-2.2-.2h-3.5a.3.3 0 00-.2.1 4 4 0 00-.8 1.8.3.3 0 00.2.4l2.2.1 2.5 2.3v.2l-.4.8c-.3.7-.4 1.3-.4 1.7a89.5 89.5 0 00.4 2 120.9 120.9 0 01-3.7.1l-1.5-.1c-.4 0-.9.1-1.4.4a.3.3 0 00-.2 0l-.2.7v.4a.3.3 0 00.2.3 321 321 0 013.2.3 54.6 54.6 0 00.2-.2v.5l1.2-.1 1-.2s.3.1.6.5l.5.7v1.7c-.1.9 0 1.8.4 3-.3.5-.5 1-.5 1.5v2.5a.3.3 0 000 .2l.1.1h-.6l-.6.3h.2l-1 .1a.3.3 0 00-.2.2c-.3.4-.5 1-.7 1.5a.3.3 0 00.3.4l.9.3.6.3h.4c.4 0 1 0 1.8-.2l1.6-.2 3.1.3 3.2.1h.4a63.6 63.6 0 003.6-.6l1 .5.8.2c.4 0 .8-.2 1.1-.4.3-.3.5-.7.6-1.2a24 24 0 012-6l1.2-1.7c.5-.7.9-1.4 1-2.1a.3.3 0 00-.5-.3 13.8 13.8 0 00-6.7 7l-.1.3v.2h-.8a.3.3 0 00-.1 0c-1.1.7-2 1-2.6 1H245.7c0-.4-.1-.7-.3-.9V29l.1-1c.2-.5.2-.8.2-1.1a.3.3 0 000-.1l-.2-.6a.3.3 0 000-.1l-.6-.3.5-.3 1.5-.2c.5 0 .9.1 1 .3a.3.3 0 00.2 0c1.5.5 2.7.7 3.4.7l.7-.1.5.2 1 .7 1 .7.8.3h.4a.3.3 0 00.2-.3l.2-1.3a.3.3 0 000-.2c-1.2-1.1-1.9-1.9-2-2.2l-.4-1.2c-.2-.7-.4-1.1-.7-1.5a.3.3 0 00-.2 0 2 2 0 00-1.2.4 9 9 0 01-.3.4c-.1 0-.2.1-.1 0a47.8 47.8 0 01-5.9.5h-.2l.2-1 .3-1.3c0-.3-.1-.5-.3-.8a.3.3 0 00-.2-.2h-.3l.2-.9c.2-.5.3-.9.2-1.3v-.4l1-.1 1.2-.2c1.3 0 2.4.1 3.2.3.8.1 1.3.4 1.5.6a101.4 101.4 0 004.8 5.1l.3.1h.3a.3.3 0 00.2-.2c.2-.4.4-.8.4-1.1 0-.8-.5-1.7-1.4-3-.2-.2-.4-.7-.6-1.5l-.5-1.8c-.4-.6-.5-1-.5-1.2v-.3a.3.3 0 00-.1-.3l-.6-.3a1 1 0 00-.5-.2zM80.4 13c-.3 0-.6.1-.8.4l-.4 1.2a.3.3 0 000 .2l1.2.6c.6 0 1 0 1.6.2l1.2 1.2v.4l.1 1.3c0 .3 0 .7-.2 1.3L83 21l.3.6.5.5h-.5a.3.3 0 00-.3.3V26l.1.5.4.5.3.7c0 .5-.1 1.2-.4 2-.3 1-.4 1.7-.4 2.2a227 227 0 000 3.5h-.2a90.7 90.7 0 01-1.6.6c-.2.2-.3.5-.3.8v.9a.3.3 0 00.3.2h.8c.7.4 1.2.6 1.6.6l1.2-.4 1-.4.3.1c.3.2.5.2.7.2h.7l.6-.2c.2 0 .3.2.4.3l1 .3c.4 0 .8-.3 1.1-.7.3-.3.5-.7.5-1.2V36a.3.3 0 00-.3-.2l-1 .1c0-.3-.3-.6-.6-.9a4 4 0 01-.6-.5 315.9 315.9 0 01-.2-5.5v-.4-.1-.3a.4.4 0 010 .1c0-.4 0-.8-.2-1.2a.3.3 0 00.3-.2v-3.3-.8c1.1 1.7 2.3 3.2 3.5 4.1v1.8l.1.3c0 .2.2.3.3.5l1.1 1.4 1.8 2.2a.3.3 0 00.3.1c.2.7.8 1.5 1.6 2.3 1 1 1.5 1.7 1.5 2.1 0 .9.2 1.6.7 2.1l.6 1-.1.9v1.2c0 .4.2.6.4.8-.1.7-.2 1.4-.1 1.9 0 .5 0 .9.3 1.1.2.3.5.5.8.5h.5a.3.3 0 00.2-.2c.3-.6.5-1.5.5-2.6v-1.9l.4-.4.2-.5a57.4 57.4 0 01.3-7c0-.4-.1-.7-.4-1h.2a.3.3 0 00.3-.3 80.1 80.1 0 00.5-2.5l-.2-.6-.6-.6.6-1 .2-.7V16.8l-.2-.5.2-.1a8 8 0 011-.4l1-.4c.1-.3.3-.5.3-.8a.3.3 0 000-.1l-.2-.6a.3.3 0 00-.2-.2 6 6 0 01-1.1-.2l-1.3-.2h-.3l-.5.2-1.5.5a12.5 12.5 0 01-.8-.2v.4h-.1v-.5c-.4 0-.8 0-1.3.3l-.9.3c-.6-.2-1-.5-1.3-.7a.3.3 0 00-.4 0l-.5 1-.2.6a.3.3 0 000 .2c.3.4.7.8 1.4 1.2l1 .5.4.2-.1.7c0 .6.3 1.4.8 2.4 0 .2 0 .5-.3 1l-.3.6a.3.3 0 00-.4.4 15.5 15.5 0 01.2 4.1c0 .8.3 1.5.9 2l-.5.8a.3.3 0 000 .1l.1.8-.4-1c-1-.6-1.3-1.2-1.3-1.8v-.6a.3.3 0 00-.1-.2 43.8 43.8 0 01-1.5-1.2c-2.4-4.1-4-6.7-5-8a.3.3 0 00-.2 0 2 2 0 01-.7-.3l-.2-.4a.3.3 0 00-.1-.2c-.4-.2-.7-.7-1-1.3-.6-1-1.6-1.7-3-2-.7-.2-1.9-.2-3.6-.2l-.7.1-.5-.1a.3.3 0 00-.1 0zm136 .2c-.2 0-.5 0-.9.2a3 3 0 01-.6.1 2 2 0 00-.7-.1c-.3 0-.6.2-.8.5l-.3 1.2a.3.3 0 00.2.3l1.2.3a.3.3 0 00.1 0l.5-.2c1.3.8 2 2 2 4v.7a.3.3 0 00-.1.1 3.2 3.2 0 000 .5v.2a.3.3 0 00.3 0c-.4 1.4-.6 3.1-.6 5.5 0 1.1.2 2 .7 2.4l-.4.3a.3.3 0 00-.1.2v5.4c0 .3.2.5.5.8h-.2c-.3.2-.7.2-1.2.3-.5 0-.8.1-1.1.3-.3.1-.5.4-.5.7v.9a.3.3 0 00.3.3 1091 1091 0 014.4-.4h.3c4.4 0 8.1.1 11.3.4.2 0 .4.1.6.4l.4 1a.3.3 0 00.3 0c.8 0 1.4-.3 1.7-1a19.4 19.4 0 01.7-1.5.3.3 0 00.1-.2c0-1.2.5-3.6 1.5-7a.3.3 0 00-.3-.4c-1 0-2 .8-3 2.2a88.4 88.4 0 01-2.4 2.6c-.5.4-1.6.6-3.2.6-.5 0-1.2 0-2.2.2l-2 .2-.2-.1-.1-.5c-.1-.6-.3-1-.6-1.4.4-.5.5-1.3.5-2.4v-2.9a.3.3 0 000-.1c0-.2-.2-.3-.3-.4.2-.4.3-.8.3-1.3V25l.1-.5.3-.8c0-.8-.3-1.8-.7-2.8 0-1.4 0-2.5.2-3.2.4-1 1-1.7 2-2.2h.6l.3.3a.3.3 0 00.3 0c.6-.4.8-1 .8-1.8a.3.3 0 000-.1c-.3-.4-.8-.5-1.4-.5-.5 0-1.3 0-2.3.2l-2.2.1c-.4 0-1.1 0-2-.2-1-.2-1.6-.2-2.1-.2zm-25.6.7h-.1zM43 17a480.8 480.8 0 003.5.4c1.2.2 2.3.7 3.5 1.3l1.1 2.4.2 2-2.3 1.3c-1.1.7-1.9 1-2.3 1a.3.3 0 00-.1 0l-.5-.3a.3.3 0 00-.2 0l-1.4.4-1.4.3-.1-.2v-2.7a119.6 119.6 0 00-.4-2.6c0-.4 0-1 .2-1.7l.2-1.6zm156.4 0a480.8 480.8 0 003.5.4c1.2.2 2.4.7 3.5 1.3l1.1 2.4.2 2-2.3 1.3c-1 .7-1.9 1-2.3 1a.3.3 0 00-.1 0l-.5-.3a.3.3 0 00-.2 0l-1.4.4-1.3.3-.2-.2v-2.7a119.6 119.6 0 00-.4-2.6c0-.4 0-1 .2-1.7l.2-1.6z" font-size="51.7"/><g aria-label="OpenTemple" style="line-height:1.25;-inkscape-font-specification:Scurlock" font-size="51.7" fill="#fff" stroke-width="1.3" filter="url(#a)" transform="translate(-78.5 87.7)"><path d="M112-62.8l-1 1.6q-.2.7-.1 2v1.8q-.3.2-1.9 2.5.3.5.3 1.2 0 1.4-1.3 1.2l-1.3 2.6q-.8 1.2-2.4 1.5-.4 0-.5 1.2-.3 0-.7.4l-4.5 1.3h-.8l-.8.2q-2.2 0-4.5-1.7L88.7-50q-1.1-.5-1.1-1.7l-.2-.6-1.2-1.2-1.4-5q-.7-2.4-.7-4.9 0-.3.4-1.1t.4-1.2v-3.5q.2 0 2-2.2l-.2-1.4v-.8q1-.2 2.3-2.3 1.3-2.2 2.6-2.2.4 0 .8-2 2.2 0 3-.9.4 0 .7-.2l1.6.2v.1h-1l4.1.2v.1q2 .3 3.6 1.6l3 2.4q.7.1 1.2 1.6t1.3 1.6q.2 2.8.5 3.8.5.4 1.2 1.6l-.1 3.4.2.9.2.8zm-5.8-2.4l-.3-1.5q-.3-1-.2-1.7-1.1-1.7-1.1-4V-74q-.8-1.2-2.1-3.7l-1.4-.6h-1.5l-.8-.5q-1.2 0-1.6.2l-1.1.8q-.5 0-1.2.5l-3.4 3.6-1.3 7v.7l.2.6q0 .6-.4.7l.2 3-.3.2v.8l.4.2.2 3q0 .6.6 2.3.5 1.5.5 2.5l-.1.7q1.2 1.3 2 2.7.3.1 1.4 1.1h.4l.5.2.4-.1.3-.2.3.2.4.3h.4q1.7 0 2.4-1 .6 0 1.2-.4l1.5-1.9q.9-1.1 1.7-1.6l1.4-6.7-.2-2.3q.3-.2.4-.8v-1.1l-.2-1.1.2-.3.2-.3z"/><path d="M134.8-67.8q0 .7-.6 2-.5 1.4-1 1.9l.1.1q0 .4-.7 1-.6.5-.7 1.7l-.4-.8-.4.6-2 .1q-1.2.7-3 .7-1.6 0-2.1-.5h-.5v1.5l-.8-1.2q-.5-.5-1.4-.5h-.4l-.2.6.3 1.4.2 1.4-.2.9-.3.9v2.1q.5.1 1 .8.5.5 1.3.5 0 1.7-1 1.7l-1.8-.3q-1.1-.4-1.7-.4l-1.7.3q-1.1.3-1.7.3h-.3q-.2-.5-1.5-.4v-1q0-.6 1.2-.7l1.2-.3v-.8l-.1-.9q0-.5 1-4.5h-.8l.2-.9q0-1-.2-1h-.6l-3.3-.2-.2-.8q.1-.2.8-.4l.8-.3 1.5.1 1.6.1h.2q-1-4.3-1-5.2v-1h.7q-.5-1.4-1-4l.1-.1-1.8-.2q-1.2-.2-1.2-.8 0-1 1-1h1.4q1.6 0 2.2-.2l1.4.5 1.8-.3q1.1-.3 1.7-.3l.5.2 2.2.2 2.2.1h.6l.6-.2q1.7 0 3.8 1.8 1.9 1.6 2.6 3.3l-.1.8q0 .3.3.8l.2.8zm-4.7 2.1q-.4-1.6-.3-2.1l-1.1-2.5q-1.9-1-3.7-1.4l-3.7-.4-.3 1.8q-.3 1.1-.3 1.8l.5 2.5v2.9l.3.3 1.5-.3 1.4-.4.5.2.1.2q.8 0 2.6-1.1l2.5-1.5z"/><path d="M159.5-61.9q-.1 1-.9 2l-1.3 1.7q-1 1.8-1.9 6.1-.3 1.3-1.5 1.3-.4 0-1.7-.6l-4 .6-3.2-.2-3.1-.2-1.8.2-1.7.2-.9-.3-1-.3.6-1.5 1-.2q.3-.3 1.3-.3h.2l-.3-.5v-2.6q0-.7.5-1.4-.6-1.8-.5-3l.1-1.8q0-.3-.5-.8-.6-.6-.9-.6l-1 .2h-1.1l-3.4-.5v-.4l.2-.5q.8-.4 1.3-.4l1.4.2h1.5l2.6-.1-.2-1.1-.2-1.2q0-.6.4-1.6l.4-1.2q-1.5-1.6-2.6-2.5l-2.3-.2q.2-1 .8-1.7h3.5l2.1.2 2.3.2 3.2-.2h3.3l.6.1.5.1q.4 0 1.2-.5.7-.5 1.1-.5.3 0 1 .4v.3q0 .5.4 1.4.3.5.6 1.7t.6 1.7q1.3 1.8 1.3 2.7 0 .5-.3 1l-.2.1q-.6 0-5-5.1-.7-1-5-1l-1.2.2h-1.2l.1.8-.2 1.2-.3 1.2h.6l.2.7-.2 1.3-.2 1.1q0 .3.4.3 5 0 6-.5l.5-.5q.3-.3 1-.4.4.4.6 1.3l.4 1.3 2 2.3-.1 1.3h-.4q-.3 0-1.6-1t-1.7-1l-.7.2q-1 0-3.4-.7-.4-.3-1.2-.3-2 0-2.3.9l.7.4.2.5-.2 1.1-.1 1v5.3q.2.3.3 1l.2.1h3.8q1 0 2.7-1h1.4q-.2 0-.3-.5l1-2q1.4-2.7 5.7-5z"/><path d="M184.3-74.2q0 .7-1.2 1-1.3.4-1.4.7l.3.6V-61q0 .3-.8 1.7.8.8.8 1.1l-.5 2.5h-.3l-.3.4q.5.5.5 1l-.1 3.4-.2 3.6q0 .2-.7.7v2q0 1.6-.4 2.6h-.4q-.8 0-1-1.4l.2-2q-.3-.1-.4-.7v-1.1-1q0-.4-.5-1.1-.7-.7-.7-2 0-.8-1.5-2.2-1.6-1.5-1.7-2.6l-.3.2L172-58q-1.5-1.8-1.5-2v-2q-2-1.6-4.1-4.8v4.9l-.5-1.3v.3q.5 1.3.5 3.1v3.3q0 1.6.2 2.4l.7.6q.6.4.5 1l1.3-.2v.5q0 .5-.4 1-.5.5-1 .5l-.7-.2-.6-.3-.7.1-.7.1-.5-.1-.5-.2q-.4 0-1 .4l-1.2.3q-.4 0-1.5-.5h-.8v-.9q0-.7.7-.8l1.4-.3V-57q0-.7.3-2 .5-1.4.5-2.1 0-.3-.5-.9l-.4-.8v-3.4q.8 0 1-.3-1-.9-1-1.2l.2-1.2.2-1.3q0-1.7-.2-2l-1.3-1.2q-.7-.2-1.6-.2l-1-.5q.4-1.4 1-1.4l.5.2.8-.2q2.6 0 3.5.2 2 .4 2.8 1.8.5 1 1.1 1.5 0 .6 1.1 1 1.5 1.6 5 7.7l1.6 1.4v.5q0 1.1 1.3 2 .8 1.4 1.3 2.8v-.3l-.2-1.2-.3-1.2.6-1q-1-.6-1-2v-.8l.1-1-.2-2.3q.3 0 .6-.8.4-.8.4-1.2-.9-1.6-.9-2.3l.1-.8-1.5-1q-1-.5-1.3-1 0-.4.7-1.5.5.5 1.5.9l1-.4q.6-.3 1.1-.3-.3 0 1 .4l2.2-.8 1.3.2 1.1.3zM218.2-71.8q-.7 1-1.2 1l-2-1.3q-.3-.1-.7-1.2 0-.2-1-1.2t-.7-1.5q-1.2-1-2-2.5-.7.2-2 .2h-2q0 .6-1 .7-1 .2-1.4 1V-75.4q0 .4-.6 1.1l-.6.8q0 .5.4.7h.7q.2.1.2.5 0-.4-.3 1-.2.7 0 2.1v2.2l-.5 1.7q1 .3 1 5.2v1.1l.2.6-1.3 2.1 1.1.7v.2l-.2.7q-.3.5-.3.8 0 1.2.7 2.3l1.3 2.2 1.3 1.2q1.4 0 2.2.3v.2q0 .6-.3 1.1l-3 .1-.2-.6h-.8l-.8-.2-1.1.2-1.1.2h-1l-1-.2q-.3 0-.5.4l-5.3.3-.4-.4q0-1.3 1.3-1.3h1.6q.6 0 1.2-.5l.8-1.2v-3.8l-.3-.9-.2-1q0-.3.5-1.3.6-1 .6-1.3 0-.3-.7-.8-.6-.5-.6-1.2v-8.4l1.2-2.6q-.7 0-1-3l-.5-3.6-1.4-.2q0-.4-.4-1l-1.8.8h-3.4l-2.6 4q-1.9 3-3.2 3-.4 0-1-.6.5-.4 1.8-2.2 1-1.3 2.2-1.8l-1-.6q.5-.9.8-2.4l.4-2.4h1l1-.1 1.3.3 1.3.3 2.1-.2 2-.3q1 0 2.6.3l2.5.3 1.5-.6.3.1.8-.4h.2q.4 0 .7-.2.4.4 1.6.3l.3.4 1.4.1q1 0 1.2-.4h.5l.7-.1.7-.2.5.2.6.2.7-.2.8-.2h.5q.5.4.5 1l-.3.5q-.3.4-.3.7l.1.8.2 1-.4.7q-.4.5-.4.8h.2q.3 0 .7-.4.6.8 1.4 2.4 1.1 2 1.1 2.4v.2l.3-.5z"/><path d="M242-61.9q-.1 1-.9 2l-1.3 1.7q-1 1.8-1.9 6.1-.3 1.3-1.5 1.3-.4 0-1.7-.6l-4 .6-3.2-.2-3.1-.2-1.7.2-1.8.2-.9-.3-1-.3q.3-1 .7-1.5l1-.2q.2-.3 1.2-.3h.2l-.3-.5v-2.6q0-.7.5-1.4-.6-1.8-.5-3l.1-1.8q0-.3-.5-.8-.6-.6-.9-.6l-1 .2h-1.1l-3.4-.5v-.4l.2-.5q.8-.4 1.4-.4l1.3.2h1.5l2.6-.1-.2-1.1-.2-1.2q0-.6.4-1.6l.4-1.2q-1.5-1.6-2.6-2.5l-2.3-.2q.2-1 .8-1.7h3.5l2.1.2 2.3.2 3.2-.2h3.3l.6.1.5.1q.4 0 1.2-.5.7-.5 1.1-.5.3 0 1 .4v.3q0 .5.4 1.4.3.5.6 1.7t.6 1.7q1.3 1.8 1.3 2.7 0 .5-.3 1l-.2.1q-.6 0-5-5.1-.7-1-5-1l-1.2.2h-1.1v.8l-.2 1.2-.3 1.2h.6l.2.7-.2 1.3-.2 1.1q0 .3.4.3 5 0 6-.5l.5-.5q.3-.3 1-.4.4.4.6 1.3l.4 1.3 2 2.3-.1 1.3h-.4q-.3 0-1.6-1t-1.7-1l-.7.2q-1 0-3.4-.7-.4-.3-1.2-.3-2 0-2.3.9l.7.4.2.5-.2 1.1-.1 1v5.3q.2.3.3 1l.2.1h3.8q1 0 2.7-1h1.4q-.2 0-.3-.5l1-2q1.4-2.7 5.7-5z"/><path d="M269.4-75.7q0 .4-.5 1l.1.2q0 .3-.7.9l-1 1q-1.2 1.2-1.2 4.7l.2 2.8.2 2.7q0 2-1 2 .6.8.6 1.3l-.5 2.3q.6 1.9.7 3.7l1.7.3.2.6q0 1.2-1.8 1.2l-.9-.1-.8-.2-.8.2-.8.2h-.8l-.8-.2-1.2.3q-.6-.6-1.3-.6v-1q0-.6.6-.6h1q1.2 0 1.2-2.4l-.2-1.4-.2-1.5q0-.6.8-1-1-2.5-1-4.5 0-1.3.7-2.6-.5-2-.5-4-1 .7-3 2.7-2 2.3-2 3v1.6q0 1.3-.7 2.2V-57.1q-.5.3-.8.3-.7 0-.8-2v-2.4q0-1-.3-1.5 0-1.8-.3-2.4 0-.2-1.5-2.1l-1.1-.2q-.3-.7-1.2-1.7-1-1-1.6-1-1 0-1 .7l.3 1.2.3 1.2q0 .5-.7 1.3 1 0 1 2L248-61l-.2 2.6v2l.2 1.9 1.8 1.8q.5 0 .5.5 0 .8-.7.8l-1.3-.3-2 .5-.7-.3q-.5-.3-.8-.3-.7 0-2 .6l-1.9.7v-.5q0-.6 1-1.3 1-.6 1.2-1v-4.6l.2-1q.3-.5.3-.9-.8-.6-.8-2.6l.2-.5q0-2 .3-2.5l.6-1.3q-1-.4-1-1.1l.3-1.3.2-1.3q0-1.5-.2-2l-1.3-1.3-.5.2q-.3 0-.9-.4-.5-.4-.8-.4.2-1.7 1-1.7l.7.1.5.3 3.3.4.1-.4h1q.8 0 1.6.9 1 .5 1.3.5h.4q.1.8 1 1.3l1.6.8q1.2.6 3.4 4.3 4.2-5.1 5.2-4.8.2 0 3.3-2.7l.4.7q1.6-.7 5-1.4z"/><path d="M291.2-67.8q0 .7-.5 2-.6 1.4-1 1.9v.1q0 .4-.6 1-.7.5-.8 1.7l-.4-.8-.3.6-2.1.1q-1.2.7-3 .7-1.6 0-2.1-.5h-.4v1.5q-.7-1-1-1.2-.3-.5-1.3-.5h-.4l-.1.6.2 1.4.2 1.4-.2.9-.2.9v2.1q.4.1.9.8.6.5 1.3.5 0 1.7-1 1.7-.6 0-1.7-.3-1.2-.4-1.8-.4l-1.7.3q-1 .3-1.7.3h-.3q-.2-.5-1.5-.4v-1q0-.6 1.2-.7l1.3-.3-.1-.8-.1-.9q0-.5 1-4.5h-.8q.3-.5.3-.9 0-1-.3-1h-.6l-3.3-.2-.2-.8q.1-.2.8-.4l.8-.3 1.5.1 1.6.1h.2q-1-4.3-1-5.2v-1h.7l-1-4 .1-.1-1.8-.2q-1.2-.2-1.2-.8 0-1 1-1h1.4q1.6 0 2.2-.2l1.4.5q.7 0 1.8-.3t1.8-.3l.4.2 2.2.2 2.2.1h.6l.6-.2q1.7 0 3.8 1.8 1.9 1.6 2.6 3.3v.8l.2.8.2.8zm-4.7 2.1q-.4-1.6-.2-2.1l-1.2-2.5q-1.8-1-3.6-1.4l-3.8-.4-.3 1.8-.2 1.8.4 2.5v2.9l.3.3q.6 0 1.5-.3l1.4-.4.6.2v.2q.8 0 2.6-1.1l2.5-1.5zM314.1-59q-1.6 5.2-1.5 7l-.8 1.7q-.3.8-1.5.8l-.4-.9q-.4-.5-.8-.6-4.8-.3-11.3-.3l-4.8.3v-.9q0-.5 1.4-.7 1.6-.2 1.8-.5-.7-.5-.7-.9v-5.3q.3-.4.7-.5-.9-.6-.9-2.4 0-3.8.7-5.7-.4 0-.4-.5v-.8q0-3.2-2.1-4.3l-.6.1-1.1-.2q.1-1.5.8-1.5l.6.1.8-.1.8-.2 2 .2 2 .2 2.3-.1 2.3-.2q.8 0 1.1.4 0 1-.6 1.5l-.4-.3h-.8q-1.6.7-2.1 2.4-.4 1-.4 3.3.8 1.5.8 2.8l-.2.6-.2.6V-62.6q0 .8-.4 1.3.3.1.5.5v2.8q-.1 2-.6 2.5.5.3.6 1.4 0 .8.6.8l2-.2 2.2-.2q2.4 0 3.3-.6l2.4-2.7q1.7-2 2.9-2z"/><path d="M338.3-61.9q0 1-.9 2l-1.2 1.7q-1 1.8-2 6.1-.3 1.3-1.5 1.3l-1.7-.6-4 .6-3.2-.2-3.1-.2-1.7.2-1.7.2-1-.3-1-.3q.3-1 .7-1.5l1-.2q.2-.3 1.3-.3h.1l-.3-.5v-2.6q0-.7.6-1.4-.6-1.8-.5-3v-1.8q0-.3-.5-.8-.5-.6-.8-.6l-1.1.2h-1.1l-3.4-.5v-.4l.2-.5q.8-.4 1.4-.4l1.4.2h1.4l2.7-.1-.3-1.1-.2-1.2q0-.6.4-1.6l.5-1.2-2.7-2.5-2.3-.2q.3-1 .8-1.7h3.5l2.2.2 2.2.2 3.3-.2h3.3l.5.1.6.1q.3 0 1.1-.5t1.2-.5l1 .4-.1.3q0 .5.5 1.4l.5 1.7q.3 1.2.7 1.7 1.3 1.8 1.3 2.7 0 .5-.3 1l-.3.1q-.5 0-5-5.1-.7-1-4.9-1l-1.2.2h-1.2v.8l-.2 1.2-.3 1.2h.6l.3.7-.3 1.3-.2 1.1q0 .3.5.3 4.9 0 6-.5l.5-.5q.3-.3 1-.4.4.4.6 1.3.2 1 .4 1.3.3.6 2 2.3l-.2 1.3h-.3q-.4 0-1.7-1-1.3-1-1.7-1l-.7.2q-1 0-3.3-.7-.4-.3-1.3-.3-2 0-2.3.9l.7.4.2.5-.2 1.1v6.3l.2 1 .3.1h3.8q1 0 2.7-1h1.3l-.3-.5 1-2q1.5-2.7 5.7-5z"/></g></g></svg>