<?xml version="1.0" standalone="no"?>
<!DOCTYPE svg PUBLIC "-//W3C//DTD SVG 20010904//EN"
 "http://www.w3.org/TR/2001/REC-SVG-20010904/DTD/svg10.dtd">
<svg version="1.0" xmlns="http://www.w3.org/2000/svg"
 width="700.000000pt" height="700.000000pt" viewBox="0 0 700.000000 700.000000"
 preserveAspectRatio="xMidYMid meet">
<metadata>
Created by potrace 1.11, written by Peter Selinger 2001-2013
</metadata>
<g transform="translate(0.000000,700.000000) scale(0.100000,-0.100000)"
fill="#000000" stroke="none">
<path d="M4803 6018 c-21 -11 -48 -26 -61 -34 -44 -28 -178 -71 -258 -83 -121
-17 -426 -15 -528 5 -40 7 -267 18 -371 17 -61 0 -158 -9 -215 -18 -75 -13
-158 -18 -290 -18 -176 -1 -243 2 -560 20 -175 10 -576 10 -660 0 -36 -4 -85
-10 -108 -13 -24 -3 -85 -16 -136 -29 -273 -69 -472 -197 -621 -400 -60 -82
-139 -179 -204 -250 -20 -22 -70 -78 -111 -125 -41 -47 -78 -87 -81 -90 -18
-15 -134 -181 -163 -233 -45 -80 -83 -196 -92 -275 -5 -49 -14 -75 -41 -115
-96 -142 -166 -349 -187 -552 -11 -104 -16 -173 -21 -270 -2 -55 -7 -154 -10
-220 -4 -66 -8 -133 -10 -150 -6 -44 -7 -296 -2 -320 3 -11 8 -40 11 -65 25
-183 105 -511 150 -615 8 -16 30 -73 51 -125 244 -615 728 -1112 1275 -1310
211 -77 336 -102 503 -102 306 1 621 88 1016 283 156 77 156 77 171 56 34 -49
116 -129 168 -164 31 -20 95 -50 142 -67 80 -28 94 -30 235 -31 157 0 167 1
360 34 66 12 134 23 150 26 17 3 46 8 65 11 209 36 390 44 512 20 42 -8 109
-28 150 -45 100 -41 141 -49 245 -45 193 6 355 93 483 258 80 105 151 280 165
411 7 70 9 332 1 379 -7 51 -33 143 -52 183 l-14 31 -43 -13 c-61 -18 -173
-18 -241 0 -124 33 -232 117 -279 218 -33 68 -33 79 -3 153 24 59 24 60 21
364 -2 168 -6 321 -9 340 -2 19 -7 78 -11 130 -3 52 -8 109 -11 125 -6 45 -27
336 -26 370 1 29 -1 491 -2 620 -1 66 4 122 11 140 7 17 17 43 23 58 10 28 10
28 37 10 59 -38 132 -130 172 -217 12 -27 38 -105 58 -175 19 -69 45 -157 58
-195 l23 -70 73 -28 c250 -97 354 -128 519 -152 237 -34 418 19 552 162 55 59
60 68 99 179 16 48 34 97 38 108 15 33 29 76 56 167 25 86 26 92 23 351 l-3
264 -35 45 c-45 59 -114 108 -145 102 -60 -11 -136 -10 -169 1 -59 20 -67 38
-60 125 12 155 11 324 -4 380 -65 258 -316 442 -601 442 -107 0 -294 -33 -350
-62 -44 -22 -129 -26 -196 -9 -16 4 -43 10 -60 12 -41 7 -105 22 -268 63 -107
26 -143 32 -158 23 -15 -8 -31 -7 -64 4 -41 14 -46 14 -82 -5z"/>
</g>
</svg>
